<svg width="300" height="99" viewBox="0 0 300 99" fill="none" xmlns="http://www.w3.org/2000/svg">
<path d="M148.977 95.709C140.477 95.709 132.67 93.7194 125.561 89.7298C118.462 85.7454 112.831 80.2246 108.665 73.1673C104.508 66.0996 102.436 58.0996 102.436 49.1673C102.436 40.334 104.508 32.3913 108.665 25.334C112.831 18.2663 118.462 12.7402 125.561 8.75065C132.67 4.76628 140.477 2.77148 148.977 2.77148C157.545 2.77148 165.357 4.76628 172.415 8.75065C179.482 12.7402 185.071 18.2663 189.186 25.334C193.311 32.3913 195.373 40.334 195.373 49.1673C195.373 58.0996 193.311 66.0996 189.186 73.1673C185.071 80.2246 179.462 85.7454 172.352 89.7298C165.253 93.7194 157.462 95.709 148.977 95.709ZM148.977 79.459C154.436 79.459 159.238 78.2246 163.394 75.7507C167.545 73.2819 170.79 69.7507 173.123 65.1673C175.467 60.5736 176.644 55.2402 176.644 49.1673C176.644 43.1152 175.467 37.8132 173.123 33.2715C170.79 28.7194 167.545 25.2246 163.394 22.7923C159.238 20.3652 154.436 19.1465 148.977 19.1465C143.519 19.1465 138.686 20.3652 134.477 22.7923C130.269 25.2246 126.998 28.7194 124.665 33.2715C122.331 37.8132 121.165 43.1152 121.165 49.1673C121.165 55.2402 122.331 60.5736 124.665 65.1673C126.998 69.7507 130.269 73.2819 134.477 75.7507C138.686 78.2246 143.519 79.459 148.977 79.459Z" fill="#0C326F"/>
<path d="M71.8333 30.3965C69.625 26.3444 66.5833 23.2611 62.7083 21.1465C58.8438 19.0215 54.3333 17.959 49.1667 17.959C43.4583 17.959 38.3958 19.2507 33.9792 21.834C29.5625 24.4069 26.1094 28.084 23.625 32.8757C21.1354 37.6673 19.8958 43.1882 19.8958 49.4382C19.8958 55.8965 21.1563 61.5215 23.6875 66.3132C26.2135 71.0944 29.7344 74.7715 34.25 77.3548C38.7604 79.9277 44.0104 81.209 50 81.209C57.375 81.209 63.4063 79.2611 68.1042 75.3548C72.7969 71.4382 75.8802 65.9798 77.3542 58.9798H44.2083V44.209H96.4167V61.0423C95.125 67.7663 92.3594 73.9902 88.125 79.709C83.8854 85.4173 78.4271 90.0007 71.75 93.459C65.0833 96.9069 57.6042 98.6257 49.3125 98.6257C40.0052 98.6257 31.6042 96.5319 24.1042 92.334C16.6042 88.1413 10.7083 82.3132 6.41667 74.8548C2.13542 67.3965 0 58.9277 0 49.4382C0 39.9694 2.13542 31.4798 6.41667 23.9798C10.7083 16.4694 16.6042 10.6204 24.1042 6.43815C31.6042 2.24544 39.9583 0.146484 49.1667 0.146484C60.0417 0.146484 69.4792 2.79232 77.4792 8.08398C85.4896 13.3757 91.0208 20.8132 94.0625 30.3965H71.8333Z" fill="#0C326F"/>
<path d="M249.834 98.75C240.803 98.75 232.511 96.6354 224.959 92.3958C217.418 88.1615 211.428 82.2917 207.001 74.7917C202.584 67.2917 200.376 58.8021 200.376 49.3125C200.376 39.9271 202.584 31.4792 207.001 23.9792C211.428 16.4688 217.418 10.5938 224.959 6.35417C232.511 2.11979 240.803 0 249.834 0C258.944 0 267.251 2.11979 274.751 6.35417C282.261 10.5938 288.209 16.4688 292.584 23.9792C296.959 31.4792 299.147 39.9271 299.147 49.3125C299.147 58.8021 296.959 67.2917 292.584 74.7917C288.209 82.2917 282.241 88.1615 274.688 92.3958C267.131 96.6354 258.845 98.75 249.834 98.75ZM249.834 81.5C255.626 81.5 260.73 80.1875 265.147 77.5625C269.574 74.9375 273.032 71.1875 275.522 66.3125C278.006 61.4271 279.251 55.7604 279.251 49.3125C279.251 42.8698 278.006 37.2292 275.522 32.3958C273.032 27.5625 269.574 23.8542 265.147 21.2708C260.73 18.6875 255.626 17.3958 249.834 17.3958C244.027 17.3958 238.886 18.6875 234.418 21.2708C229.959 23.8542 226.485 27.5625 224.001 32.3958C221.511 37.2292 220.272 42.8698 220.272 49.3125C220.272 55.7604 221.511 61.4271 224.001 66.3125C226.485 71.1875 229.959 74.9375 234.418 77.5625C238.886 80.1875 244.027 81.5 249.834 81.5Z" fill="#0C326F"/>
</svg>
