<svg width="48" height="47" viewBox="0 0 48 47" fill="none" xmlns="http://www.w3.org/2000/svg">
<circle cx="23.85" cy="23.5" r="23" fill="#F8F8F8"/>
<path d="M24 23.5C21.7812 23.5 20 21.7188 20 19.5C20 17.3125 21.7812 15.5 24 15.5C26.1875 15.5 28 17.3125 28 19.5C28 21.7188 26.1875 23.5 24 23.5ZM26.7812 24.5C29.0938 24.5 31 26.4062 31 28.7188V30C31 30.8438 30.3125 31.5 29.5 31.5H18.5C17.6562 31.5 17 30.8438 17 30V28.7188C17 26.4062 18.875 24.5 21.1875 24.5H21.7188C22.4062 24.8438 23.1875 25 24 25C24.8125 25 25.5625 24.8438 26.25 24.5H26.7812Z" fill="#1351B4"/>
</svg>
